<svg xmlns="http://www.w3.org/2000/svg" viewBox="0 0 400 400"><defs><style>.cls-1{fill:#fff;}.cls-2{fill:#eaeaea;}</style></defs><title>user</title><g id="Layer_2" data-name="Layer 2"><g id="Layer_1-2" data-name="Layer 1"><circle class="cls-1" cx="200" cy="200" r="200"/><path class="cls-2" d="M202.56,0C92.11-1.39,1.43,87,0,197.45a199.36,199.36,0,0,0,72,156,53.19,53.19,0,0,1,9.46-6.79L141,313.88a24.39,24.39,0,0,0,12.61-21.46l-.1-24.45s-17.61-20.88-24.41-50a20.06,20.06,0,0,1-9.33-16.8l-.12-26.76a20,20,0,0,1,6.63-14.86l-.17-38.69s-8.21-60.17,73.33-60.52,73.84,59.89,73.84,59.89l.17,38.69a19.92,19.92,0,0,1,6.75,14.8l.12,26.76a20.08,20.08,0,0,1-14.15,19.16,147.22,147.22,0,0,1-19.7,40.12,94.69,94.69,0,0,1-6,7.79l.11,25.08a24.36,24.36,0,0,0,13.57,21.74l64,31.67a53.45,53.45,0,0,1,10.52,7A199.49,199.49,0,0,0,400,202.56C401.41,92.11,313,1.43,202.56,0Z"/></g></g></svg>